<?xml version="1.0" encoding="UTF-8"?>
<svg id="Layer_1" data-name="Layer 1" xmlns="http://www.w3.org/2000/svg" viewBox="0 0 1080 1080">
  <path d="M128.15,496.68v-52.18l-20.49,38.85h-8.62l-20.38-38.85v52.18h-15.45v-79.5h16.68l23.4,45.12,23.63-45.12h16.57v79.5h-15.34Z" style="fill: #37954b;"/>
  <path d="M156.17,464.32c0-3.87.78-7.69,2.34-11.45,1.56-3.76,3.78-7.16,6.67-10.2,2.89-3.04,6.42-5.47,10.6-7.29,4.18-1.82,8.96-2.73,14.36-2.73,6.23,0,11.68,1.29,16.35,3.87,4.67,2.58,8.07,5.92,10.2,10.03l-10.6,7.41c-1.59-3.49-3.97-5.87-7.12-7.12-3.15-1.25-6.21-1.88-9.17-1.88-3.27,0-6.12.59-8.54,1.77-2.43,1.18-4.46,2.72-6.1,4.61-1.63,1.9-2.87,4.03-3.7,6.38-.84,2.36-1.25,4.71-1.25,7.06,0,2.66.49,5.18,1.48,7.58.99,2.39,2.35,4.54,4.1,6.44,1.75,1.9,3.82,3.4,6.21,4.5,2.39,1.1,5.07,1.65,8.03,1.65,2.05,0,4.14-.32,6.27-.97,2.13-.64,4.1-1.63,5.92-2.96,1.82-1.33,3.23-3.09,4.22-5.3l11.39,6.72c-1.37,3.12-3.61,5.77-6.72,7.98-3.12,2.2-6.55,3.89-10.31,5.07-3.76,1.18-7.5,1.77-11.22,1.77-4.86,0-9.34-.95-13.44-2.85-4.1-1.9-7.63-4.42-10.6-7.58-2.96-3.15-5.26-6.67-6.89-10.54-1.63-3.87-2.45-7.86-2.45-11.96Z" style="fill: #37954b;"/>
  <path d="M228.99,496.68v-79.5h15.45v37.79l33.37-37.9h17.02l-30.46,35.43,32.36,44.18h-17.47l-24.63-34.31-10.19,10.54v23.77h-15.45Z" style="fill: #37954b;"/>
  <path d="M353.1,484.6v12.08h-49.11v-63.69h48.31v12.08h-34.52v13.56h29.74v11.28h-29.74v14.7h35.32Z" style="fill: #37954b;"/>
  <path d="M378.37,458.51v38.17h-13.79v-63.69h10.71l36.8,39.19v-39.19h13.67v63.69h-11.17l-36.23-38.17Z" style="fill: #37954b;"/>
  <path d="M435.59,486.31l38.97-41.24h-37.83v-12.08h54.69v10.48l-37.71,41.13h37.94v12.08h-56.06v-10.37Z" style="fill: #37954b;"/>
  <path d="M502.97,496.68v-63.69h13.79v63.69h-13.79Z" style="fill: #37954b;"/>
  <path d="M580.82,484.6v12.08h-49.1v-63.69h48.31v12.08h-34.52v13.56h29.74v11.28h-29.74v14.7h35.32Z" style="fill: #37954b;"/>
  <path d="M620.36,464.32c0-3.87.78-7.69,2.34-11.45,1.56-3.76,3.78-7.16,6.67-10.2,2.88-3.04,6.42-5.47,10.6-7.29,4.18-1.82,8.96-2.73,14.36-2.73,6.23,0,11.68,1.29,16.35,3.87,4.67,2.58,8.07,5.92,10.2,10.03l-10.6,7.41c-1.6-3.49-3.97-5.87-7.12-7.12-3.15-1.25-6.21-1.88-9.17-1.88-3.27,0-6.12.59-8.54,1.77-2.43,1.18-4.46,2.72-6.1,4.61-1.63,1.9-2.87,4.03-3.7,6.38-.84,2.36-1.25,4.71-1.25,7.06,0,2.66.49,5.18,1.48,7.58.99,2.39,2.35,4.54,4.1,6.44,1.75,1.9,3.82,3.4,6.21,4.5,2.39,1.1,5.07,1.65,8.03,1.65,2.05,0,4.14-.32,6.27-.97,2.12-.64,4.1-1.63,5.92-2.96,1.82-1.33,3.23-3.09,4.22-5.3l11.39,6.72c-1.37,3.12-3.61,5.77-6.72,7.98-3.12,2.2-6.55,3.89-10.31,5.07-3.76,1.18-7.5,1.77-11.22,1.77-4.86,0-9.34-.95-13.44-2.85-4.1-1.9-7.63-4.42-10.6-7.58-2.96-3.15-5.26-6.67-6.89-10.54-1.63-3.87-2.45-7.86-2.45-11.96Z" style="fill: #37954b;"/>
  <path d="M684.76,496.68l27.8-63.69h11.28l27.8,63.69h-14.7l-5.94-14.93h-25.56l-5.98,14.93h-14.7ZM718.26,449.73l-8.03,20.05h16.01l-7.98-20.05Z" style="fill: #37954b;"/>
  <path d="M759.7,496.68v-63.69h29.85c4.33,0,8.2,1.06,11.62,3.19,3.42,2.13,6.1,4.8,8.03,8.03,1.94,3.23,2.9,6.63,2.9,10.2s-.89,7.1-2.68,10.37c-1.79,3.27-4.33,5.92-7.63,7.98s-7.2,3.08-11.68,3.08h-16.63v20.85h-13.79ZM773.48,463.75h15.84c1.75,0,3.29-.38,4.62-1.14,1.33-.76,2.37-1.82,3.13-3.19.76-1.37,1.14-3.04,1.14-5.01s-.44-3.76-1.31-5.13c-.88-1.37-2.03-2.41-3.48-3.13-1.44-.72-3-1.08-4.67-1.08h-15.27v18.69Z" style="fill: #37954b;"/>
  <path d="M823.04,496.68v-63.69h13.79v63.69h-13.79Z" style="fill: #37954b;"/>
  <path d="M904.39,445.06h-22.33v51.61h-13.9v-51.61h-22.56v-12.08h58.79v12.08Z" style="fill: #37954b;"/>
  <path d="M897.8,496.68l27.8-63.69h11.28l27.8,63.69h-14.7l-5.94-14.93h-25.57l-5.98,14.93h-14.7ZM931.3,449.73l-8.03,20.05h16.01l-7.98-20.05Z" style="fill: #37954b;"/>
  <path d="M972.74,496.68v-63.69h13.79v51.61h32.59v12.08h-46.37Z" style="fill: #37954b;"/>
  <path d="M65.15,617.96v-91.8h9.18v43.01l39.74-43.01h11.67l-34.23,36.72,34.62,55.08h-11.15l-30.03-48-10.62,11.28v36.72h-9.18Z" style="fill: #f9f9f9;"/>
  <path d="M138.4,617.96v-66.09h8.39l.52,11.8c2.1-4.2,5.13-7.48,9.11-9.84,3.98-2.36,8.41-3.54,13.31-3.54s9.48,1.01,13.25,3.02c3.76,2.01,6.69,5.05,8.79,9.11,2.1,4.07,3.15,9.25,3.15,15.54v40h-9.18v-38.95c0-6.99-1.53-12.2-4.59-15.61-3.06-3.41-7.43-5.11-13.11-5.11-3.85,0-7.32.94-10.43,2.82-3.1,1.88-5.55,4.61-7.34,8.2-1.79,3.59-2.69,8-2.69,13.25v35.41h-9.18Z" style="fill: #f9f9f9;"/>
  <path d="M241.45,619.53c-6.03,0-11.48-1.42-16.33-4.26s-8.68-6.86-11.47-12.06c-2.8-5.2-4.2-11.26-4.2-18.16s1.42-13.33,4.26-18.49c2.84-5.16,6.71-9.16,11.61-12,4.9-2.84,10.36-4.26,16.39-4.26s11.85,1.42,16.65,4.26c4.81,2.84,8.61,6.84,11.41,12,2.8,5.16,4.2,11.32,4.2,18.49s-1.42,12.96-4.26,18.16c-2.84,5.2-6.69,9.22-11.54,12.06-4.85,2.84-10.43,4.26-16.72,4.26ZM241.58,611.66c4.11,0,7.89-1,11.34-3.02,3.45-2.01,6.25-5,8.39-8.98,2.14-3.98,3.21-8.9,3.21-14.75s-1.05-10.88-3.15-14.82c-2.1-3.93-4.87-6.88-8.33-8.85-3.46-1.97-7.24-2.95-11.34-2.95s-7.65,1.01-11.15,3.02c-3.5,2.01-6.32,4.96-8.46,8.85-2.14,3.89-3.21,8.81-3.21,14.75s1.05,10.78,3.15,14.75c2.1,3.98,4.87,6.97,8.33,8.98,3.45,2.01,7.19,3.02,11.21,3.02Z" style="fill: #f9f9f9;"/>
  <path d="M300.61,617.96l-19.41-66.09h9.31l15.74,56.52h-1.84l17.05-56.52h10.49l17.05,56.52h-1.84l15.74-56.52h9.31l-19.41,66.09h-9.31l-17.7-59.14h1.84l-17.7,59.14h-9.31Z" style="fill: #f9f9f9;"/>
  <path d="M384.55,617.96v-94.42h9.18v94.42h-9.18Z" style="fill: #f9f9f9;"/>
  <path d="M440.58,619.53c-6.12,0-11.52-1.44-16.2-4.33-4.68-2.88-8.35-6.93-11.02-12.13-2.67-5.2-4-11.3-4-18.29s1.31-13.07,3.93-18.23c2.62-5.16,6.31-9.16,11.08-12,4.76-2.84,10.25-4.26,16.46-4.26s11.78,1.44,16.2,4.33c4.41,2.88,7.78,6.65,10.1,11.28,2.32,4.63,3.48,9.7,3.48,15.21v2.69c0,.92-.04,1.99-.13,3.21h-54.16v-7.74h45.37c-.18-6.73-2.25-11.93-6.23-15.61-3.98-3.67-8.98-5.51-15.02-5.51-3.93,0-7.59.9-10.95,2.69-3.37,1.79-6.08,4.42-8.13,7.87-2.06,3.45-3.08,7.8-3.08,13.05v3.41c0,5.95,1.05,10.88,3.15,14.82,2.1,3.93,4.87,6.86,8.33,8.79,3.45,1.92,7.06,2.88,10.82,2.88,4.98,0,9.09-1.11,12.33-3.34,3.23-2.23,5.55-5.31,6.95-9.25h9.05c-1.14,3.85-2.95,7.34-5.44,10.49-2.49,3.15-5.66,5.6-9.51,7.34-3.85,1.75-8.31,2.62-13.38,2.62Z" style="fill: #f9f9f9;"/>
  <path d="M514.47,619.53c-6.38,0-11.96-1.51-16.72-4.52-4.77-3.02-8.46-7.15-11.08-12.39-2.62-5.25-3.93-11.19-3.93-17.83s1.31-12.57,3.93-17.77c2.62-5.2,6.34-9.29,11.15-12.26,4.81-2.97,10.4-4.46,16.79-4.46,5.59,0,10.51,1.2,14.75,3.61,4.24,2.41,7.5,5.79,9.77,10.16v-40.52h9.18v94.42h-8.39l-.79-11.93c-1.4,2.27-3.21,4.46-5.44,6.56-2.23,2.1-4.94,3.78-8.13,5.05-3.19,1.27-6.88,1.9-11.08,1.9ZM515.25,611.53c4.63,0,8.68-1.12,12.13-3.34,3.45-2.23,6.16-5.33,8.13-9.31,1.97-3.98,2.95-8.63,2.95-13.97s-.98-10.01-2.95-14.03c-1.97-4.02-4.68-7.12-8.13-9.31-3.45-2.18-7.5-3.28-12.13-3.28s-8.57,1.09-12.06,3.28c-3.5,2.19-6.23,5.27-8.2,9.25-1.97,3.98-2.95,8.68-2.95,14.1s1,10.12,3.02,14.1c2.01,3.98,4.76,7.06,8.26,9.25,3.5,2.19,7.48,3.28,11.93,3.28Z" style="fill: #f9f9f9;"/>
  <path d="M592.15,648.38c-5.86,0-11.04-.79-15.54-2.36-4.5-1.57-8.04-3.93-10.62-7.08-2.58-3.15-3.87-7.04-3.87-11.67,0-1.84.33-3.83.98-5.97.65-2.14,1.94-4.3,3.87-6.49,1.92-2.18,4.63-4.15,8.13-5.9l7.48,3.28c-4.64,2.19-7.65,4.57-9.05,7.15-1.4,2.58-2.1,4.92-2.1,7.02,0,3.15.9,5.77,2.69,7.87,1.79,2.1,4.24,3.69,7.34,4.79,3.1,1.09,6.67,1.64,10.69,1.64s7.5-.59,10.43-1.77c2.93-1.18,5.18-2.84,6.75-4.98,1.57-2.14,2.36-4.61,2.36-7.41,0-3.24-1.25-5.97-3.74-8.2s-7.1-3.52-13.84-3.87c-5.33-.35-9.73-.81-13.18-1.38-3.46-.57-6.29-1.27-8.52-2.1-2.23-.83-4.07-1.73-5.51-2.69-1.44-.96-2.82-2.01-4.13-3.15v-3.02l12.59-11.93,8.39,3.02-12.33,11.02.79-3.54c.96.7,1.9,1.36,2.82,1.97.92.61,2.14,1.12,3.67,1.51,1.53.39,3.67.79,6.43,1.18s6.49.77,11.21,1.12c6.03.44,10.84,1.49,14.43,3.15,3.58,1.66,6.21,3.89,7.87,6.69,1.66,2.8,2.49,6.08,2.49,9.84s-1.03,7.34-3.08,10.75c-2.05,3.41-5.2,6.18-9.44,8.33-4.24,2.14-9.73,3.21-16.46,3.21ZM592.02,596.98c-5.6,0-10.29-1.05-14.1-3.15s-6.71-4.92-8.72-8.46c-2.01-3.54-3.02-7.45-3.02-11.74s1-8.31,3.02-11.8c2.01-3.5,4.94-6.29,8.79-8.39,3.85-2.1,8.52-3.15,14.03-3.15s10.29,1.05,14.1,3.15c3.8,2.1,6.69,4.9,8.65,8.39,1.97,3.5,2.95,7.43,2.95,11.8s-.98,8.2-2.95,11.74c-1.97,3.54-4.85,6.36-8.65,8.46s-8.5,3.15-14.1,3.15ZM592.02,589.11c5.07,0,9.07-1.33,12-4,2.93-2.67,4.39-6.49,4.39-11.47s-1.46-8.92-4.39-11.54c-2.93-2.62-6.93-3.93-12-3.93s-9.12,1.31-12.13,3.93c-3.02,2.62-4.52,6.47-4.52,11.54s1.48,8.81,4.46,11.47c2.97,2.67,7.04,4,12.2,4ZM602.78,560.13l-3.28-8.26h26.75v7.47l-23.47.79Z" style="fill: #f9f9f9;"/>
  <path d="M664.63,619.53c-6.12,0-11.52-1.44-16.2-4.33-4.68-2.88-8.35-6.93-11.02-12.13-2.67-5.2-4-11.3-4-18.29s1.31-13.07,3.94-18.23c2.62-5.16,6.31-9.16,11.08-12,4.77-2.84,10.25-4.26,16.46-4.26s11.78,1.44,16.2,4.33c4.41,2.88,7.78,6.65,10.1,11.28,2.32,4.63,3.48,9.7,3.48,15.21v2.69c0,.92-.05,1.99-.13,3.21h-54.16v-7.74h45.38c-.18-6.73-2.25-11.93-6.23-15.61s-8.98-5.51-15.02-5.51c-3.93,0-7.58.9-10.95,2.69-3.37,1.79-6.08,4.42-8.13,7.87-2.05,3.45-3.08,7.8-3.08,13.05v3.41c0,5.95,1.05,10.88,3.15,14.82,2.1,3.93,4.87,6.86,8.33,8.79,3.45,1.92,7.06,2.88,10.82,2.88,4.98,0,9.09-1.11,12.33-3.34s5.55-5.31,6.95-9.25h9.05c-1.14,3.85-2.95,7.34-5.44,10.49-2.49,3.15-5.66,5.6-9.51,7.34-3.85,1.75-8.31,2.62-13.38,2.62Z" style="fill: #f9f9f9;"/>
  <path d="M750.92,617.96v-91.8h30.82c6.47,0,11.8,1.05,16,3.15s7.32,4.9,9.38,8.39c2.05,3.5,3.08,7.39,3.08,11.67,0,4.72-1.03,8.66-3.08,11.8-2.05,3.15-4.72,5.55-8,7.21-3.28,1.66-6.71,2.71-10.29,3.15l1.7-1.31c3.85.09,7.43,1.14,10.75,3.15,3.32,2.01,5.99,4.7,8,8.07,2.01,3.37,3.02,7.19,3.02,11.47,0,4.55-1.11,8.72-3.34,12.52-2.23,3.8-5.53,6.84-9.9,9.12-4.37,2.27-9.84,3.41-16.39,3.41h-31.74ZM760.1,566.81h21.38c6.21,0,10.97-1.49,14.29-4.46,3.32-2.97,4.98-6.99,4.98-12.07s-1.62-8.85-4.85-11.87c-3.23-3.02-8.18-4.52-14.82-4.52h-20.98v32.92ZM760.1,610.22h21.9c6.64,0,11.78-1.57,15.41-4.72,3.62-3.15,5.44-7.48,5.44-12.98s-1.9-9.9-5.71-13.18-8.98-4.92-15.54-4.92h-21.51v35.8Z" style="fill: #f9f9f9;"/>
  <path d="M849.08,619.53c-5.33,0-9.77-.96-13.31-2.88-3.54-1.92-6.16-4.41-7.87-7.47-1.71-3.06-2.56-6.43-2.56-10.1,0-4.54,1.16-8.39,3.47-11.54,2.31-3.15,5.57-5.51,9.77-7.08,4.2-1.57,9.09-2.36,14.69-2.36h17.84c0-4.28-.66-7.91-1.97-10.88-1.31-2.97-3.24-5.22-5.77-6.75-2.54-1.53-5.73-2.29-9.57-2.29-4.46,0-8.31,1.14-11.54,3.41-3.23,2.27-5.25,5.6-6.03,9.97h-9.57c.53-4.63,2.12-8.52,4.79-11.67,2.67-3.15,5.97-5.53,9.9-7.15,3.93-1.62,8.09-2.43,12.46-2.43,6.12,0,11.1,1.16,14.95,3.48,3.85,2.32,6.73,5.49,8.66,9.51,1.92,4.02,2.88,8.66,2.88,13.9v40.79h-8.39l-.53-12.06c-.79,1.84-1.86,3.58-3.21,5.25-1.36,1.66-2.93,3.1-4.72,4.33-1.79,1.22-3.87,2.21-6.23,2.95-2.36.74-5.07,1.11-8.13,1.11ZM850.13,611.53c3.23,0,6.14-.68,8.72-2.03,2.58-1.35,4.79-3.12,6.62-5.31,1.84-2.18,3.23-4.68,4.2-7.48.96-2.8,1.44-5.64,1.44-8.52v-2.36h-17.18c-4.63,0-8.35.57-11.15,1.71-2.8,1.14-4.81,2.67-6.03,4.59-1.22,1.92-1.84,4.15-1.84,6.69s.59,4.74,1.77,6.62c1.18,1.88,2.9,3.37,5.18,4.46,2.27,1.09,5.03,1.64,8.26,1.64Z" style="fill: #f9f9f9;"/>
  <path d="M921.52,619.53c-5.25,0-9.86-.87-13.84-2.62s-7.17-4.26-9.57-7.54c-2.41-3.28-3.87-7.19-4.39-11.74h9.57c.44,2.54,1.42,4.85,2.95,6.95,1.53,2.1,3.61,3.78,6.23,5.05,2.62,1.27,5.72,1.9,9.31,1.9,3.32,0,6.05-.5,8.2-1.51,2.14-1,3.76-2.36,4.85-4.07,1.09-1.71,1.64-3.61,1.64-5.71,0-2.88-.68-5.13-2.03-6.75-1.36-1.62-3.3-2.82-5.84-3.61-2.54-.79-5.6-1.53-9.18-2.23-2.97-.52-5.82-1.22-8.53-2.1-2.71-.87-5.14-2.01-7.28-3.41-2.14-1.4-3.83-3.17-5.05-5.31-1.22-2.14-1.84-4.66-1.84-7.54,0-3.76.94-7.06,2.82-9.9,1.88-2.84,4.57-5.07,8.07-6.69,3.5-1.62,7.61-2.43,12.33-2.43,6.73,0,12.24,1.68,16.53,5.05,4.28,3.37,6.77,8.29,7.47,14.75h-9.18c-.35-3.58-1.84-6.43-4.46-8.52-2.62-2.1-6.16-3.15-10.62-3.15s-7.72.9-10.03,2.69c-2.32,1.79-3.48,4.22-3.48,7.28,0,1.92.61,3.59,1.84,4.98,1.22,1.4,3.04,2.6,5.44,3.61,2.4,1.01,5.35,1.86,8.85,2.56,4.2.79,8.06,1.82,11.61,3.08,3.54,1.27,6.43,3.19,8.66,5.77,2.23,2.58,3.34,6.23,3.34,10.95.09,3.93-.88,7.43-2.88,10.49-2.01,3.06-4.83,5.44-8.46,7.15-3.63,1.71-7.98,2.56-13.05,2.56Z" style="fill: #f9f9f9;"/>
  <path d="M989.28,619.53c-6.12,0-11.52-1.44-16.2-4.33-4.68-2.88-8.35-6.93-11.02-12.13-2.67-5.2-4-11.3-4-18.29s1.31-13.07,3.94-18.23c2.62-5.16,6.31-9.16,11.08-12,4.77-2.84,10.25-4.26,16.46-4.26s11.78,1.44,16.2,4.33c4.41,2.88,7.78,6.65,10.1,11.28,2.32,4.63,3.48,9.7,3.48,15.21v2.69c0,.92-.05,1.99-.13,3.21h-54.16v-7.74h45.38c-.18-6.73-2.25-11.93-6.23-15.61s-8.98-5.51-15.02-5.51c-3.93,0-7.58.9-10.95,2.69-3.37,1.79-6.08,4.42-8.13,7.87-2.05,3.45-3.08,7.8-3.08,13.05v3.41c0,5.95,1.05,10.88,3.15,14.82,2.1,3.93,4.87,6.86,8.33,8.79,3.45,1.92,7.06,2.88,10.82,2.88,4.98,0,9.09-1.11,12.33-3.34s5.55-5.31,6.95-9.25h9.05c-1.14,3.85-2.95,7.34-5.44,10.49-2.49,3.15-5.66,5.6-9.51,7.34-3.85,1.75-8.31,2.62-13.38,2.62Z" style="fill: #f9f9f9;"/>
</svg>