<svg width="206" height="22" viewBox="0 0 206 22" fill="none" xmlns="http://www.w3.org/2000/svg">
<path d="M8.78275 12.0132V4.94451L6.02203 10.2081H4.85403L2.0933 4.94451V12.0132H0V1.24332H2.24499L5.43044 7.37153L8.64623 1.24332H10.8761V12.0132H8.78275Z" fill="white"/>
<path d="M16.8593 12.1649C16.2121 12.1649 15.6307 12.0587 15.1149 11.8463C14.5992 11.6239 14.1593 11.3205 13.7952 10.9362C13.4312 10.5418 13.148 10.0969 12.9458 9.60134C12.7536 9.10583 12.6576 8.58503 12.6576 8.03895C12.6576 7.29063 12.8244 6.60803 13.1581 5.99116C13.502 5.36418 13.9874 4.86361 14.6143 4.48945C15.2413 4.11528 15.9846 3.9282 16.8442 3.9282C17.7037 3.9282 18.4419 4.11528 19.0588 4.48945C19.6757 4.86361 20.1358 5.35407 20.4392 5.96082L18.4521 6.56758C18.2801 6.27431 18.0526 6.05184 17.7695 5.90015C17.4863 5.73835 17.1728 5.65745 16.829 5.65745C16.4447 5.65745 16.0908 5.75857 15.7672 5.96082C15.4537 6.15296 15.2059 6.43106 15.0239 6.79511C14.8419 7.14905 14.7509 7.56366 14.7509 8.03895C14.7509 8.50413 14.8419 8.91875 15.0239 9.2828C15.216 9.63674 15.4689 9.91989 15.7823 10.1323C16.0958 10.3345 16.4447 10.4356 16.829 10.4356C17.0717 10.4356 17.2992 10.3952 17.5116 10.3143C17.7341 10.2334 17.9313 10.1221 18.1032 9.98057C18.2751 9.83899 18.4015 9.67719 18.4824 9.49516L20.4695 10.1019C20.2875 10.4963 20.0195 10.8502 19.6656 11.1637C19.3217 11.4772 18.9122 11.725 18.4369 11.907C17.9717 12.0789 17.4459 12.1649 16.8593 12.1649Z" fill="white"/>
<path d="M22.2815 12.0132V1.25849H24.3748V6.37038L28.8951 1.24332H31.2007L27.0748 6.0215L31.4586 12.0132H29.0923L25.74 7.37153L24.3748 8.7974V12.0132H22.2815Z" fill="white"/>
<path d="M35.7482 12.1649C35.1111 12.1649 34.5347 12.0587 34.019 11.8463C33.5032 11.6239 33.0633 11.3255 32.6993 10.9514C32.3352 10.5671 32.0521 10.1323 31.8498 9.64685C31.6577 9.15134 31.5616 8.63054 31.5616 8.08446C31.5616 7.32602 31.7285 6.63331 32.0622 6.00633C32.406 5.37935 32.8914 4.87878 33.5184 4.50462C34.1555 4.12034 34.9038 3.9282 35.7634 3.9282C36.633 3.9282 37.3763 4.12034 37.9932 4.50462C38.61 4.87878 39.0803 5.37935 39.4039 6.00633C39.7376 6.6232 39.9045 7.29063 39.9045 8.00862C39.9045 8.12997 39.8994 8.25637 39.8893 8.38784C39.8792 8.50919 39.8691 8.61031 39.859 8.69121H33.7156C33.756 9.09572 33.8723 9.44966 34.0645 9.75303C34.2667 10.0564 34.5195 10.289 34.8229 10.4508C35.1364 10.6025 35.4701 10.6783 35.824 10.6783C36.2285 10.6783 36.6078 10.5823 36.9617 10.3901C37.3258 10.1879 37.5735 9.92495 37.705 9.60134L39.4494 10.0867C39.2573 10.4912 38.9792 10.8502 38.6151 11.1637C38.2612 11.4772 37.8415 11.725 37.3561 11.907C36.8707 12.0789 36.3347 12.1649 35.7482 12.1649ZM33.6701 7.40186H37.8263C37.7859 6.99736 37.6696 6.64848 37.4774 6.35521C37.2954 6.05184 37.0527 5.81925 36.7493 5.65745C36.446 5.48553 36.1072 5.39958 35.733 5.39958C35.369 5.39958 35.0353 5.48553 34.7319 5.65745C34.4386 5.81925 34.1959 6.05184 34.0038 6.35521C33.8218 6.64848 33.7105 6.99736 33.6701 7.40186Z" fill="white"/>
<path d="M48.894 12.0132H46.8614V7.55355C46.8614 6.91646 46.7501 6.45128 46.5277 6.15802C46.3052 5.86476 45.9968 5.71812 45.6024 5.71812C45.3293 5.71812 45.0512 5.78891 44.7681 5.93049C44.495 6.07206 44.2473 6.26926 44.0248 6.52207C43.8023 6.76477 43.6405 7.04792 43.5394 7.37153V12.0132H41.5068V4.06472H43.3422V5.5361C43.5445 5.19227 43.8023 4.90406 44.1158 4.67147C44.4293 4.42877 44.7883 4.24675 45.1928 4.1254C45.6074 3.99393 46.0423 3.9282 46.4973 3.9282C46.9928 3.9282 47.3973 4.01921 47.7108 4.20124C48.0344 4.37315 48.2771 4.6108 48.4389 4.91418C48.6109 5.20744 48.7271 5.54115 48.7878 5.91532C48.8586 6.28948 48.894 6.6687 48.894 7.05298V12.0132Z" fill="white"/>
<path d="M50.4946 10.7693L54.8783 5.49059H50.6766V4.06472H57.0627V5.30856L52.7092 10.5873H57.1385V12.0132H50.4946V10.7693Z" fill="white"/>
<path d="M58.8702 12.0132V4.06472H60.9029V12.0132H58.8702ZM58.8702 2.9574V0.939941H60.9029V2.9574H58.8702Z" fill="white"/>
<path d="M66.7866 12.1649C66.1495 12.1649 65.5731 12.0587 65.0573 11.8463C64.5416 11.6239 64.1017 11.3255 63.7377 10.9514C63.3736 10.5671 63.0905 10.1323 62.8882 9.64685C62.6961 9.15134 62.6 8.63054 62.6 8.08446C62.6 7.32602 62.7669 6.63331 63.1006 6.00633C63.4444 5.37935 63.9298 4.87878 64.5568 4.50462C65.1939 4.12034 65.9422 3.9282 66.8018 3.9282C67.6714 3.9282 68.4147 4.12034 69.0316 4.50462C69.6484 4.87878 70.1187 5.37935 70.4423 6.00633C70.776 6.6232 70.9428 7.29063 70.9428 8.00862C70.9428 8.12997 70.9378 8.25637 70.9277 8.38784C70.9176 8.50919 70.9075 8.61031 70.8973 8.69121H64.754C64.7944 9.09572 64.9107 9.44966 65.1029 9.75303C65.3051 10.0564 65.5579 10.289 65.8613 10.4508C66.1748 10.6025 66.5085 10.6783 66.8624 10.6783C67.2669 10.6783 67.6462 10.5823 68.0001 10.3901C68.3642 10.1879 68.6119 9.92495 68.7434 9.60134L70.4878 10.0867C70.2956 10.4912 70.0176 10.8502 69.6535 11.1637C69.2996 11.4772 68.8799 11.725 68.3945 11.907C67.9091 12.0789 67.3731 12.1649 66.7866 12.1649ZM64.7085 7.40186H68.8647C68.8243 6.99736 68.708 6.64848 68.5158 6.35521C68.3338 6.05184 68.0911 5.81925 67.7877 5.65745C67.4844 5.48553 67.1456 5.39958 66.7714 5.39958C66.4074 5.39958 66.0737 5.48553 65.7703 5.65745C65.477 5.81925 65.2343 6.05184 65.0422 6.35521C64.8601 6.64848 64.7489 6.99736 64.7085 7.40186Z" fill="white"/>
<path d="M0.117215 18.2295C0.117215 17.8944 0.176498 17.5671 0.295064 17.2474C0.418785 16.9227 0.596633 16.6288 0.82861 16.3659C1.06059 16.0979 1.34411 15.8865 1.67919 15.7319C2.01427 15.5721 2.39574 15.4921 2.82361 15.4921C3.3288 15.4921 3.7644 15.603 4.13041 15.8246C4.50157 16.0463 4.77736 16.335 4.95779 16.6907L4.13814 17.2552C4.04535 17.049 3.92421 16.8866 3.77471 16.768C3.62522 16.6443 3.46541 16.5592 3.29529 16.5128C3.12518 16.4613 2.95764 16.4355 2.79268 16.4355C2.52462 16.4355 2.29006 16.4896 2.08902 16.5979C1.89312 16.7062 1.72816 16.8479 1.59413 17.0232C1.4601 17.1985 1.35958 17.3944 1.29256 17.6109C1.2307 17.8274 1.19977 18.0439 1.19977 18.2604C1.19977 18.5027 1.23844 18.7372 1.31576 18.9641C1.39309 19.1857 1.50134 19.3842 1.64053 19.5595C1.78487 19.7296 1.95498 19.8662 2.15088 19.9693C2.35192 20.0672 2.57101 20.1162 2.80814 20.1162C2.97826 20.1162 3.15095 20.0879 3.32622 20.0312C3.50149 19.9744 3.66388 19.8842 3.81337 19.7605C3.96287 19.6368 4.07886 19.477 4.16134 19.2811L5.03512 19.7837C4.92686 20.0569 4.74901 20.2889 4.50157 20.4796C4.25928 20.6704 3.98607 20.8147 3.68192 20.9127C3.37777 21.0106 3.0762 21.0596 2.77721 21.0596C2.38543 21.0596 2.02716 20.9797 1.70239 20.8199C1.37762 20.6549 1.09667 20.4384 0.85954 20.1703C0.627564 19.8971 0.44456 19.593 0.310529 19.2579C0.181653 18.9177 0.117215 18.5749 0.117215 18.2295Z" fill="#47BB60"/>
<path d="M13.7403 15.5231H14.8228L16.841 21.0132H15.743L15.2327 19.6445H13.315L12.8124 21.0132H11.7143L13.7403 15.5231ZM15.0393 18.8945L14.2816 16.6288L13.4928 18.8945H15.0393Z" fill="#47BB60"/>
<path d="M24.0159 21.0132V15.5231H26.3434C26.596 15.5231 26.8279 15.5746 27.0393 15.6777C27.2506 15.7808 27.4337 15.92 27.5883 16.0953C27.7481 16.2706 27.8718 16.4664 27.9595 16.683C28.0471 16.8995 28.0909 17.1211 28.0909 17.348C28.0909 17.6573 28.0187 17.9511 27.8744 18.2295C27.7301 18.5078 27.5316 18.7347 27.279 18.9099C27.0264 19.0852 26.7274 19.1728 26.382 19.1728H25.083V21.0132H24.0159ZM25.083 18.2372H26.3202C26.449 18.2372 26.565 18.2011 26.6681 18.1289C26.7712 18.0568 26.8537 17.9537 26.9156 17.8196C26.9774 17.6805 27.0084 17.5232 27.0084 17.348C27.0084 17.1572 26.9723 16.9948 26.9001 16.8608C26.8331 16.7268 26.7429 16.6263 26.6295 16.5592C26.5212 16.4922 26.4026 16.4587 26.2738 16.4587H25.083V18.2372Z" fill="#47BB60"/>
<path d="M35.4063 21.0132V15.5231H36.4734V21.0132H35.4063Z" fill="#47BB60"/>
<path d="M48.2975 16.4587H46.5422V21.0132H45.4828V16.4587H43.7275V15.5231H48.2975V16.4587Z" fill="#47BB60"/>
<path d="M56.5306 15.5231H57.6131L59.6313 21.0132H58.5333L58.0229 19.6445H56.1053L55.6027 21.0132H54.5046L56.5306 15.5231ZM57.8296 18.8945L57.0718 16.6288L56.2831 18.8945H57.8296Z" fill="#47BB60"/>
<path d="M66.8062 21.0132V15.5231H67.8733V20.0776H70.6724V21.0132H66.8062Z" fill="#47BB60"/>
<path d="M80.1019 17V5.48H82.0299V10.824L86.6299 5.48H88.9979L84.0459 11.128L89.3339 17H86.8859L82.0299 11.624V17H80.1019ZM96.4373 17V12.84C96.4373 12.568 96.4186 12.2667 96.3813 11.936C96.344 11.6053 96.256 11.288 96.1173 10.984C95.984 10.6747 95.7813 10.4213 95.5093 10.224C95.2426 10.0267 94.88 9.928 94.4213 9.928C94.176 9.928 93.9333 9.968 93.6933 10.048C93.4533 10.128 93.2346 10.2667 93.0373 10.464C92.8453 10.656 92.6906 10.9227 92.5733 11.264C92.456 11.6 92.3973 12.032 92.3973 12.56L91.2533 12.072C91.2533 11.336 91.3946 10.6693 91.6773 10.072C91.9653 9.47467 92.3866 9 92.9413 8.648C93.496 8.29067 94.1786 8.112 94.9893 8.112C95.6293 8.112 96.1573 8.21867 96.5733 8.432C96.9893 8.64533 97.32 8.91733 97.5653 9.248C97.8106 9.57867 97.992 9.93067 98.1093 10.304C98.2266 10.6773 98.3013 11.032 98.3333 11.368C98.3706 11.6987 98.3893 11.968 98.3893 12.176V17H96.4373ZM90.4453 17V8.36H92.1653V11.04H92.3973V17H90.4453ZM104.152 17.24C103.288 17.24 102.534 17.0453 101.888 16.656C101.243 16.2667 100.742 15.7307 100.384 15.048C100.032 14.36 99.8563 13.5707 99.8563 12.68C99.8563 11.7733 100.038 10.9787 100.4 10.296C100.763 9.61333 101.267 9.08 101.912 8.696C102.558 8.312 103.304 8.12 104.152 8.12C105.022 8.12 105.779 8.31467 106.424 8.704C107.07 9.09333 107.571 9.632 107.928 10.32C108.286 11.0027 108.464 11.7893 108.464 12.68C108.464 13.576 108.283 14.368 107.92 15.056C107.563 15.7387 107.062 16.2747 106.416 16.664C105.771 17.048 105.016 17.24 104.152 17.24ZM104.152 15.432C104.92 15.432 105.491 15.176 105.864 14.664C106.238 14.152 106.424 13.4907 106.424 12.68C106.424 11.8427 106.235 11.176 105.856 10.68C105.478 10.1787 104.91 9.928 104.152 9.928C103.635 9.928 103.208 10.0453 102.872 10.28C102.542 10.5093 102.296 10.832 102.136 11.248C101.976 11.6587 101.896 12.136 101.896 12.68C101.896 13.5173 102.086 14.1867 102.464 14.688C102.848 15.184 103.411 15.432 104.152 15.432ZM111.754 17L109.114 8.344L111.002 8.36L112.69 13.904L114.402 8.36H116.026L117.73 13.904L119.426 8.36H121.314L118.674 17H117.17L115.21 11.056L113.258 17H111.754ZM122.918 17V5.24H124.846V17H122.918ZM131.171 17.24C130.296 17.24 129.528 17.0507 128.867 16.672C128.205 16.2933 127.688 15.768 127.315 15.096C126.947 14.424 126.763 13.6507 126.763 12.776C126.763 11.832 126.944 11.0133 127.307 10.32C127.669 9.62133 128.173 9.08 128.819 8.696C129.464 8.312 130.211 8.12 131.059 8.12C131.955 8.12 132.715 8.33067 133.339 8.752C133.968 9.168 134.435 9.75733 134.739 10.52C135.043 11.2827 135.157 12.1813 135.083 13.216H133.171V12.512C133.165 11.5733 133 10.888 132.675 10.456C132.349 10.024 131.837 9.808 131.139 9.808C130.349 9.808 129.763 10.0533 129.379 10.544C128.995 11.0293 128.803 11.7413 128.803 12.68C128.803 13.5547 128.995 14.232 129.379 14.712C129.763 15.192 130.323 15.432 131.059 15.432C131.533 15.432 131.941 15.328 132.283 15.12C132.629 14.9067 132.896 14.6 133.083 14.2L134.987 14.776C134.656 15.5547 134.144 16.16 133.451 16.592C132.763 17.024 132.003 17.24 131.171 17.24ZM128.195 13.216V11.76H134.139V13.216H128.195ZM140.332 17.24C139.537 17.24 138.844 17.04 138.252 16.64C137.66 16.24 137.201 15.696 136.876 15.008C136.55 14.32 136.388 13.544 136.388 12.68C136.388 11.8053 136.55 11.0267 136.876 10.344C137.206 9.656 137.673 9.11467 138.276 8.72C138.878 8.32 139.588 8.12 140.404 8.12C141.225 8.12 141.913 8.32 142.468 8.72C143.028 9.11467 143.452 9.656 143.74 10.344C144.028 11.032 144.172 11.8107 144.172 12.68C144.172 13.5387 144.028 14.3147 143.74 15.008C143.452 15.696 143.022 16.24 142.452 16.64C141.881 17.04 141.174 17.24 140.332 17.24ZM140.628 15.512C141.145 15.512 141.561 15.3947 141.876 15.16C142.196 14.92 142.428 14.5867 142.572 14.16C142.721 13.7333 142.796 13.24 142.796 12.68C142.796 12.1147 142.721 11.6213 142.572 11.2C142.428 10.7733 142.201 10.4427 141.892 10.208C141.582 9.968 141.182 9.848 140.692 9.848C140.174 9.848 139.748 9.976 139.412 10.232C139.076 10.4827 138.828 10.824 138.668 11.256C138.508 11.6827 138.428 12.1573 138.428 12.68C138.428 13.208 138.505 13.688 138.66 14.12C138.82 14.5467 139.062 14.8853 139.388 15.136C139.713 15.3867 140.126 15.512 140.628 15.512ZM142.796 17V10.936H142.556V5.48H144.5V17H142.796ZM150.375 21.08C149.895 21.08 149.433 21.0053 148.991 20.856C148.553 20.7067 148.159 20.4907 147.807 20.208C147.455 19.9307 147.167 19.5947 146.943 19.2L148.719 18.32C148.884 18.6347 149.116 18.8667 149.415 19.016C149.719 19.1707 150.041 19.248 150.383 19.248C150.783 19.248 151.14 19.176 151.455 19.032C151.769 18.8933 152.012 18.6853 152.183 18.408C152.359 18.136 152.441 17.7947 152.431 17.384V14.928H152.671V8.36H154.359V17.416C154.359 17.6347 154.348 17.8427 154.327 18.04C154.311 18.2427 154.281 18.44 154.239 18.632C154.111 19.192 153.865 19.6507 153.503 20.008C153.14 20.3707 152.689 20.64 152.151 20.816C151.617 20.992 151.025 21.08 150.375 21.08ZM150.207 17.24C149.412 17.24 148.719 17.04 148.127 16.64C147.535 16.24 147.076 15.696 146.751 15.008C146.425 14.32 146.263 13.544 146.263 12.68C146.263 11.8053 146.425 11.0267 146.751 10.344C147.081 9.656 147.548 9.11467 148.151 8.72C148.753 8.32 149.463 8.12 150.279 8.12C151.1 8.12 151.788 8.32 152.343 8.72C152.903 9.11467 153.327 9.656 153.615 10.344C153.903 11.032 154.047 11.8107 154.047 12.68C154.047 13.5387 153.903 14.3147 153.615 15.008C153.327 15.696 152.897 16.24 152.327 16.64C151.756 17.04 151.049 17.24 150.207 17.24ZM150.503 15.512C151.02 15.512 151.436 15.3947 151.751 15.16C152.071 14.92 152.303 14.5867 152.447 14.16C152.596 13.7333 152.671 13.24 152.671 12.68C152.671 12.1147 152.596 11.6213 152.447 11.2C152.303 10.7733 152.076 10.4427 151.767 10.208C151.457 9.968 151.057 9.848 150.567 9.848C150.049 9.848 149.623 9.976 149.287 10.232C148.951 10.4827 148.703 10.824 148.543 11.256C148.383 11.6827 148.303 12.1573 148.303 12.68C148.303 13.208 148.38 13.688 148.535 14.12C148.695 14.5467 148.937 14.8853 149.263 15.136C149.588 15.3867 150.001 15.512 150.503 15.512ZM160.53 17.24C159.655 17.24 158.887 17.0507 158.226 16.672C157.565 16.2933 157.047 15.768 156.674 15.096C156.306 14.424 156.122 13.6507 156.122 12.776C156.122 11.832 156.303 11.0133 156.666 10.32C157.029 9.62133 157.533 9.08 158.178 8.696C158.823 8.312 159.57 8.12 160.418 8.12C161.314 8.12 162.074 8.33067 162.698 8.752C163.327 9.168 163.794 9.75733 164.098 10.52C164.402 11.2827 164.517 12.1813 164.442 13.216H162.53V12.512C162.525 11.5733 162.359 10.888 162.034 10.456C161.709 10.024 161.197 9.808 160.498 9.808C159.709 9.808 159.122 10.0533 158.738 10.544C158.354 11.0293 158.162 11.7413 158.162 12.68C158.162 13.5547 158.354 14.232 158.738 14.712C159.122 15.192 159.682 15.432 160.418 15.432C160.893 15.432 161.301 15.328 161.642 15.12C161.989 14.9067 162.255 14.6 162.442 14.2L164.346 14.776C164.015 15.5547 163.503 16.16 162.81 16.592C162.122 17.024 161.362 17.24 160.53 17.24ZM157.554 13.216V11.76H163.498V13.216H157.554ZM169.43 17V5.48H173.998C174.777 5.48 175.414 5.63733 175.91 5.952C176.411 6.26133 176.782 6.65867 177.022 7.144C177.267 7.62933 177.39 8.13067 177.39 8.648C177.39 9.28267 177.238 9.82133 176.934 10.264C176.635 10.7067 176.227 11.0053 175.71 11.16V10.76C176.435 10.9253 176.985 11.2693 177.358 11.792C177.737 12.3147 177.926 12.9093 177.926 13.576C177.926 14.2587 177.795 14.856 177.534 15.368C177.273 15.88 176.883 16.28 176.366 16.568C175.854 16.856 175.219 17 174.462 17H169.43ZM171.382 15.184H174.222C174.558 15.184 174.859 15.1173 175.126 14.984C175.393 14.8453 175.601 14.6533 175.75 14.408C175.905 14.1573 175.982 13.8613 175.982 13.52C175.982 13.2107 175.915 12.9333 175.782 12.688C175.649 12.4427 175.454 12.248 175.198 12.104C174.942 11.9547 174.635 11.88 174.278 11.88H171.382V15.184ZM171.382 10.08H173.974C174.251 10.08 174.499 10.0267 174.718 9.92C174.937 9.81333 175.11 9.656 175.238 9.448C175.366 9.24 175.43 8.984 175.43 8.68C175.43 8.28 175.302 7.94667 175.046 7.68C174.79 7.41333 174.433 7.28 173.974 7.28H171.382V10.08ZM181.94 17.24C181.316 17.24 180.788 17.1227 180.356 16.888C179.924 16.648 179.596 16.3307 179.372 15.936C179.153 15.5413 179.044 15.1067 179.044 14.632C179.044 14.216 179.113 13.8427 179.252 13.512C179.39 13.176 179.604 12.888 179.892 12.648C180.18 12.4027 180.553 12.2027 181.012 12.048C181.358 11.936 181.764 11.8347 182.228 11.744C182.697 11.6533 183.204 11.5707 183.748 11.496C184.297 11.416 184.87 11.3307 185.468 11.24L184.78 11.632C184.785 11.0347 184.652 10.5947 184.38 10.312C184.108 10.0293 183.649 9.888 183.004 9.888C182.614 9.888 182.238 9.97867 181.876 10.16C181.513 10.3413 181.26 10.6533 181.116 11.096L179.356 10.544C179.569 9.81333 179.974 9.22667 180.572 8.784C181.174 8.34133 181.985 8.12 183.004 8.12C183.772 8.12 184.446 8.24533 185.028 8.496C185.614 8.74667 186.049 9.15733 186.332 9.728C186.486 10.032 186.58 10.344 186.612 10.664C186.644 10.9787 186.66 11.3227 186.66 11.696V17H184.972V15.128L185.252 15.432C184.862 16.056 184.406 16.5147 183.884 16.808C183.366 17.096 182.718 17.24 181.94 17.24ZM182.324 15.704C182.761 15.704 183.134 15.6267 183.444 15.472C183.753 15.3173 183.998 15.128 184.18 14.904C184.366 14.68 184.492 14.4693 184.556 14.272C184.657 14.0267 184.713 13.7467 184.724 13.432C184.74 13.112 184.748 12.8533 184.748 12.656L185.34 12.832C184.758 12.9227 184.26 13.0027 183.844 13.072C183.428 13.1413 183.07 13.208 182.772 13.272C182.473 13.3307 182.209 13.3973 181.98 13.472C181.756 13.552 181.566 13.6453 181.412 13.752C181.257 13.8587 181.137 13.9813 181.052 14.12C180.972 14.2587 180.932 14.4213 180.932 14.608C180.932 14.8213 180.985 15.0107 181.092 15.176C181.198 15.336 181.353 15.464 181.556 15.56C181.764 15.656 182.02 15.704 182.324 15.704ZM192.079 17.24C191.012 17.24 190.145 17 189.479 16.52C188.812 16.04 188.407 15.3653 188.263 14.496L190.231 14.192C190.332 14.6187 190.556 14.9547 190.903 15.2C191.249 15.4453 191.687 15.568 192.215 15.568C192.679 15.568 193.036 15.4773 193.287 15.296C193.543 15.1093 193.671 14.856 193.671 14.536C193.671 14.3387 193.623 14.1813 193.527 14.064C193.436 13.9413 193.233 13.824 192.919 13.712C192.604 13.6 192.121 13.4587 191.471 13.288C190.745 13.096 190.169 12.8907 189.743 12.672C189.316 12.448 189.009 12.184 188.823 11.88C188.636 11.576 188.543 11.208 188.543 10.776C188.543 10.2373 188.684 9.768 188.967 9.368C189.249 8.968 189.644 8.66133 190.151 8.448C190.657 8.22933 191.255 8.12 191.943 8.12C192.615 8.12 193.209 8.224 193.727 8.432C194.249 8.64 194.671 8.936 194.991 9.32C195.311 9.704 195.508 10.1547 195.583 10.672L193.615 11.024C193.567 10.656 193.399 10.3653 193.111 10.152C192.828 9.93867 192.449 9.81867 191.975 9.792C191.521 9.76533 191.156 9.83467 190.879 10C190.601 10.16 190.463 10.3867 190.463 10.68C190.463 10.8453 190.519 10.9867 190.631 11.104C190.743 11.2213 190.967 11.3387 191.303 11.456C191.644 11.5733 192.151 11.7173 192.823 11.888C193.511 12.064 194.06 12.2667 194.471 12.496C194.887 12.72 195.185 12.9893 195.367 13.304C195.553 13.6187 195.647 14 195.647 14.448C195.647 15.3173 195.329 16 194.695 16.496C194.065 16.992 193.193 17.24 192.079 17.24ZM201.327 17.24C200.452 17.24 199.684 17.0507 199.023 16.672C198.361 16.2933 197.844 15.768 197.471 15.096C197.103 14.424 196.919 13.6507 196.919 12.776C196.919 11.832 197.1 11.0133 197.463 10.32C197.825 9.62133 198.329 9.08 198.975 8.696C199.62 8.312 200.367 8.12 201.215 8.12C202.111 8.12 202.871 8.33067 203.495 8.752C204.124 9.168 204.591 9.75733 204.895 10.52C205.199 11.2827 205.313 12.1813 205.239 13.216H203.327V12.512C203.321 11.5733 203.156 10.888 202.831 10.456C202.505 10.024 201.993 9.808 201.295 9.808C200.505 9.808 199.919 10.0533 199.535 10.544C199.151 11.0293 198.959 11.7413 198.959 12.68C198.959 13.5547 199.151 14.232 199.535 14.712C199.919 15.192 200.479 15.432 201.215 15.432C201.689 15.432 202.097 15.328 202.439 15.12C202.785 14.9067 203.052 14.6 203.239 14.2L205.143 14.776C204.812 15.5547 204.3 16.16 203.607 16.592C202.919 17.024 202.159 17.24 201.327 17.24ZM198.351 13.216V11.76H204.295V13.216H198.351Z" fill="white"/>
</svg>
